<mxfile host="app.diagrams.net" agent="Mozilla/5.0 (Windows NT 10.0; Win64; x64) AppleWebKit/537.36 (KHTML, like Gecko) Chrome/128.0.0.0 Safari/537.36" version="24.7.7">
  <diagram name="PÃ¡gina-1" id="GXRo9QMhdFm5Ruz7tY2C">
    <mxGraphModel dx="1434" dy="786" grid="1" gridSize="10" guides="1" tooltips="1" connect="1" arrows="1" fold="1" page="1" pageScale="1" pageWidth="827" pageHeight="1169" math="0" shadow="0">
      <root>
        <mxCell id="0" />
        <mxCell id="1" parent="0" />
        <mxCell id="-Rsnn8Rgt8Se0u3ssWqy-6" value="" style="edgeStyle=orthogonalEdgeStyle;rounded=0;orthogonalLoop=1;jettySize=auto;html=1;" edge="1" parent="1" source="-Rsnn8Rgt8Se0u3ssWqy-1" target="-Rsnn8Rgt8Se0u3ssWqy-5">
          <mxGeometry relative="1" as="geometry" />
        </mxCell>
        <mxCell id="-Rsnn8Rgt8Se0u3ssWqy-1" value="INICIO" style="ellipse;whiteSpace=wrap;html=1;" vertex="1" parent="1">
          <mxGeometry x="330" y="10" width="120" height="80" as="geometry" />
        </mxCell>
        <mxCell id="-Rsnn8Rgt8Se0u3ssWqy-2" value="Inserir MATRICULA&lt;div&gt;Inserir NOTA1&lt;/div&gt;&lt;div&gt;Inserir NOTA2&lt;/div&gt;" style="shape=parallelogram;perimeter=parallelogramPerimeter;whiteSpace=wrap;html=1;fixedSize=1;" vertex="1" parent="1">
          <mxGeometry x="315" y="240" width="150" height="60" as="geometry" />
        </mxCell>
        <mxCell id="-Rsnn8Rgt8Se0u3ssWqy-3" value="" style="shape=parallelogram;perimeter=parallelogramPerimeter;whiteSpace=wrap;html=1;fixedSize=1;" vertex="1" parent="1">
          <mxGeometry x="50" y="190" width="120" height="60" as="geometry" />
        </mxCell>
        <mxCell id="-Rsnn8Rgt8Se0u3ssWqy-4" value="" style="rhombus;whiteSpace=wrap;html=1;" vertex="1" parent="1">
          <mxGeometry x="50" y="320" width="80" height="80" as="geometry" />
        </mxCell>
        <mxCell id="-Rsnn8Rgt8Se0u3ssWqy-8" value="" style="edgeStyle=orthogonalEdgeStyle;rounded=0;orthogonalLoop=1;jettySize=auto;html=1;" edge="1" parent="1" source="-Rsnn8Rgt8Se0u3ssWqy-5" target="-Rsnn8Rgt8Se0u3ssWqy-2">
          <mxGeometry relative="1" as="geometry" />
        </mxCell>
        <mxCell id="-Rsnn8Rgt8Se0u3ssWqy-5" value="MATRICULA&lt;div&gt;NOTA1&lt;/div&gt;&lt;div&gt;NOTA2&lt;/div&gt;&lt;div&gt;MEDIA&lt;/div&gt;" style="shape=hexagon;perimeter=hexagonPerimeter2;whiteSpace=wrap;html=1;fixedSize=1;" vertex="1" parent="1">
          <mxGeometry x="330" y="120" width="120" height="80" as="geometry" />
        </mxCell>
        <mxCell id="-Rsnn8Rgt8Se0u3ssWqy-7" value="" style="rounded=0;whiteSpace=wrap;html=1;" vertex="1" parent="1">
          <mxGeometry x="50" y="500" width="120" height="60" as="geometry" />
        </mxCell>
      </root>
    </mxGraphModel>
  </diagram>
</mxfile>
